<?xml version="1.0" encoding="utf-8" standalone="no"?>
<!DOCTYPE svg PUBLIC "-//W3C//DTD SVG 1.1//EN"
  "http://www.w3.org/Graphics/SVG/1.1/DTD/svg11.dtd">
<!-- Created with matplotlib (https://matplotlib.org/) -->
<svg height="576pt" version="1.1" viewBox="0 0 1152 576" width="1152pt" xmlns="http://www.w3.org/2000/svg" xmlns:xlink="http://www.w3.org/1999/xlink">
 <defs>
  <style type="text/css">
*{stroke-linecap:butt;stroke-linejoin:round;white-space:pre;}
  </style>
 </defs>
 <g id="figure_1">
  <g id="patch_1">
   <path d="M 0 576 
L 1152 576 
L 1152 0 
L 0 0 
z
" style="fill:none;"/>
  </g>
  <g id="axes_1">
   <g id="patch_2">
    <path d="M 144 518.4 
L 1036.8 518.4 
L 1036.8 57.6 
L 144 57.6 
z
" style="fill:none;"/>
   </g>
   <g id="patch_3">
    <path clip-path="url(#p9844367c4a)" d="M 154.628571 518.4 
L 175.885714 518.4 
L 175.885714 198.144 
L 154.628571 198.144 
z
" style="fill:#7fc97f;stroke:#000000;stroke-linejoin:miter;stroke-width:0.8;"/>
   </g>
   <g id="patch_4">
    <path clip-path="url(#p9844367c4a)" d="M 197.142857 518.4 
L 218.4 518.4 
L 218.4 228.096 
L 197.142857 228.096 
z
" style="fill:#7fc97f;stroke:#000000;stroke-linejoin:miter;stroke-width:0.8;"/>
   </g>
   <g id="patch_5">
    <path clip-path="url(#p9844367c4a)" d="M 239.657143 518.4 
L 260.914286 518.4 
L 260.914286 244.224 
L 239.657143 244.224 
z
" style="fill:#7fc97f;stroke:#000000;stroke-linejoin:miter;stroke-width:0.8;"/>
   </g>
   <g id="patch_6">
    <path clip-path="url(#p9844367c4a)" d="M 282.171429 518.4 
L 303.428571 518.4 
L 303.428571 251.136 
L 282.171429 251.136 
z
" style="fill:#7fc97f;stroke:#000000;stroke-linejoin:miter;stroke-width:0.8;"/>
   </g>
   <g id="patch_7">
    <path clip-path="url(#p9844367c4a)" d="M 324.685714 518.4 
L 345.942857 518.4 
L 345.942857 223.488 
L 324.685714 223.488 
z
" style="fill:#7fc97f;stroke:#000000;stroke-linejoin:miter;stroke-width:0.8;"/>
   </g>
   <g id="patch_8">
    <path clip-path="url(#p9844367c4a)" d="M 367.2 518.4 
L 388.457143 518.4 
L 388.457143 184.32 
L 367.2 184.32 
z
" style="fill:#7fc97f;stroke:#000000;stroke-linejoin:miter;stroke-width:0.8;"/>
   </g>
   <g id="patch_9">
    <path clip-path="url(#p9844367c4a)" d="M 409.714286 518.4 
L 430.971429 518.4 
L 430.971429 200.448 
L 409.714286 200.448 
z
" style="fill:#7fc97f;stroke:#000000;stroke-linejoin:miter;stroke-width:0.8;"/>
   </g>
   <g id="patch_10">
    <path clip-path="url(#p9844367c4a)" d="M 452.228571 518.4 
L 473.485714 518.4 
L 473.485714 377.856 
L 452.228571 377.856 
z
" style="fill:#7fc97f;stroke:#000000;stroke-linejoin:miter;stroke-width:0.8;"/>
   </g>
   <g id="patch_11">
    <path clip-path="url(#p9844367c4a)" d="M 494.742857 518.4 
L 516 518.4 
L 516 331.776 
L 494.742857 331.776 
z
" style="fill:#7fc97f;stroke:#000000;stroke-linejoin:miter;stroke-width:0.8;"/>
   </g>
   <g id="patch_12">
    <path clip-path="url(#p9844367c4a)" d="M 537.257143 518.4 
L 558.514286 518.4 
L 558.514286 237.312 
L 537.257143 237.312 
z
" style="fill:#7fc97f;stroke:#000000;stroke-linejoin:miter;stroke-width:0.8;"/>
   </g>
   <g id="patch_13">
    <path clip-path="url(#p9844367c4a)" d="M 579.771429 518.4 
L 601.028571 518.4 
L 601.028571 239.616 
L 579.771429 239.616 
z
" style="fill:#7fc97f;stroke:#000000;stroke-linejoin:miter;stroke-width:0.8;"/>
   </g>
   <g id="patch_14">
    <path clip-path="url(#p9844367c4a)" d="M 622.285714 518.4 
L 643.542857 518.4 
L 643.542857 391.68 
L 622.285714 391.68 
z
" style="fill:#7fc97f;stroke:#000000;stroke-linejoin:miter;stroke-width:0.8;"/>
   </g>
   <g id="patch_15">
    <path clip-path="url(#p9844367c4a)" d="M 664.8 518.4 
L 686.057143 518.4 
L 686.057143 288 
L 664.8 288 
z
" style="fill:#7fc97f;stroke:#000000;stroke-linejoin:miter;stroke-width:0.8;"/>
   </g>
   <g id="patch_16">
    <path clip-path="url(#p9844367c4a)" d="M 707.314286 518.4 
L 728.571429 518.4 
L 728.571429 216.576 
L 707.314286 216.576 
z
" style="fill:#7fc97f;stroke:#000000;stroke-linejoin:miter;stroke-width:0.8;"/>
   </g>
   <g id="patch_17">
    <path clip-path="url(#p9844367c4a)" d="M 749.828571 518.4 
L 771.085714 518.4 
L 771.085714 218.88 
L 749.828571 218.88 
z
" style="fill:#7fc97f;stroke:#000000;stroke-linejoin:miter;stroke-width:0.8;"/>
   </g>
   <g id="patch_18">
    <path clip-path="url(#p9844367c4a)" d="M 792.342857 518.4 
L 813.6 518.4 
L 813.6 193.536 
L 792.342857 193.536 
z
" style="fill:#7fc97f;stroke:#000000;stroke-linejoin:miter;stroke-width:0.8;"/>
   </g>
   <g id="patch_19">
    <path clip-path="url(#p9844367c4a)" d="M 834.857143 518.4 
L 856.114286 518.4 
L 856.114286 202.752 
L 834.857143 202.752 
z
" style="fill:#7fc97f;stroke:#000000;stroke-linejoin:miter;stroke-width:0.8;"/>
   </g>
   <g id="patch_20">
    <path clip-path="url(#p9844367c4a)" d="M 877.371429 518.4 
L 898.628571 518.4 
L 898.628571 426.24 
L 877.371429 426.24 
z
" style="fill:#7fc97f;stroke:#000000;stroke-linejoin:miter;stroke-width:0.8;"/>
   </g>
   <g id="patch_21">
    <path clip-path="url(#p9844367c4a)" d="M 919.885714 518.4 
L 941.142857 518.4 
L 941.142857 288 
L 919.885714 288 
z
" style="fill:#7fc97f;stroke:#000000;stroke-linejoin:miter;stroke-width:0.8;"/>
   </g>
   <g id="patch_22">
    <path clip-path="url(#p9844367c4a)" d="M 962.4 518.4 
L 983.657143 518.4 
L 983.657143 168.192 
L 962.4 168.192 
z
" style="fill:#7fc97f;stroke:#000000;stroke-linejoin:miter;stroke-width:0.8;"/>
   </g>
   <g id="patch_23">
    <path clip-path="url(#p9844367c4a)" d="M 1004.914286 518.4 
L 1026.171429 518.4 
L 1026.171429 246.528 
L 1004.914286 246.528 
z
" style="fill:#7fc97f;stroke:#000000;stroke-linejoin:miter;stroke-width:0.8;"/>
   </g>
   <g id="patch_24">
    <path clip-path="url(#p9844367c4a)" d="M 154.628571 198.144 
L 175.885714 198.144 
L 175.885714 156.672 
L 154.628571 156.672 
z
" style="fill:#beaed4;stroke:#000000;stroke-linejoin:miter;stroke-width:0.8;"/>
   </g>
   <g id="patch_25">
    <path clip-path="url(#p9844367c4a)" d="M 197.142857 228.096 
L 218.4 228.096 
L 218.4 156.672 
L 197.142857 156.672 
z
" style="fill:#beaed4;stroke:#000000;stroke-linejoin:miter;stroke-width:0.8;"/>
   </g>
   <g id="patch_26">
    <path clip-path="url(#p9844367c4a)" d="M 239.657143 244.224 
L 260.914286 244.224 
L 260.914286 156.672 
L 239.657143 156.672 
z
" style="fill:#beaed4;stroke:#000000;stroke-linejoin:miter;stroke-width:0.8;"/>
   </g>
   <g id="patch_27">
    <path clip-path="url(#p9844367c4a)" d="M 282.171429 251.136 
L 303.428571 251.136 
L 303.428571 156.672 
L 282.171429 156.672 
z
" style="fill:#beaed4;stroke:#000000;stroke-linejoin:miter;stroke-width:0.8;"/>
   </g>
   <g id="patch_28">
    <path clip-path="url(#p9844367c4a)" d="M 324.685714 223.488 
L 345.942857 223.488 
L 345.942857 156.672 
L 324.685714 156.672 
z
" style="fill:#beaed4;stroke:#000000;stroke-linejoin:miter;stroke-width:0.8;"/>
   </g>
   <g id="patch_29">
    <path clip-path="url(#p9844367c4a)" d="M 367.2 184.32 
L 388.457143 184.32 
L 388.457143 156.672 
L 367.2 156.672 
z
" style="fill:#beaed4;stroke:#000000;stroke-linejoin:miter;stroke-width:0.8;"/>
   </g>
   <g id="patch_30">
    <path clip-path="url(#p9844367c4a)" d="M 409.714286 200.448 
L 430.971429 200.448 
L 430.971429 156.672 
L 409.714286 156.672 
z
" style="fill:#beaed4;stroke:#000000;stroke-linejoin:miter;stroke-width:0.8;"/>
   </g>
   <g id="patch_31">
    <path clip-path="url(#p9844367c4a)" d="M 452.228571 377.856 
L 473.485714 377.856 
L 473.485714 156.672 
L 452.228571 156.672 
z
" style="fill:#beaed4;stroke:#000000;stroke-linejoin:miter;stroke-width:0.8;"/>
   </g>
   <g id="patch_32">
    <path clip-path="url(#p9844367c4a)" d="M 494.742857 331.776 
L 516 331.776 
L 516 156.672 
L 494.742857 156.672 
z
" style="fill:#beaed4;stroke:#000000;stroke-linejoin:miter;stroke-width:0.8;"/>
   </g>
   <g id="patch_33">
    <path clip-path="url(#p9844367c4a)" d="M 537.257143 237.312 
L 558.514286 237.312 
L 558.514286 156.672 
L 537.257143 156.672 
z
" style="fill:#beaed4;stroke:#000000;stroke-linejoin:miter;stroke-width:0.8;"/>
   </g>
   <g id="patch_34">
    <path clip-path="url(#p9844367c4a)" d="M 579.771429 239.616 
L 601.028571 239.616 
L 601.028571 156.672 
L 579.771429 156.672 
z
" style="fill:#beaed4;stroke:#000000;stroke-linejoin:miter;stroke-width:0.8;"/>
   </g>
   <g id="patch_35">
    <path clip-path="url(#p9844367c4a)" d="M 622.285714 391.68 
L 643.542857 391.68 
L 643.542857 156.672 
L 622.285714 156.672 
z
" style="fill:#beaed4;stroke:#000000;stroke-linejoin:miter;stroke-width:0.8;"/>
   </g>
   <g id="patch_36">
    <path clip-path="url(#p9844367c4a)" d="M 664.8 288 
L 686.057143 288 
L 686.057143 156.672 
L 664.8 156.672 
z
" style="fill:#beaed4;stroke:#000000;stroke-linejoin:miter;stroke-width:0.8;"/>
   </g>
   <g id="patch_37">
    <path clip-path="url(#p9844367c4a)" d="M 707.314286 216.576 
L 728.571429 216.576 
L 728.571429 156.672 
L 707.314286 156.672 
z
" style="fill:#beaed4;stroke:#000000;stroke-linejoin:miter;stroke-width:0.8;"/>
   </g>
   <g id="patch_38">
    <path clip-path="url(#p9844367c4a)" d="M 749.828571 218.88 
L 771.085714 218.88 
L 771.085714 156.672 
L 749.828571 156.672 
z
" style="fill:#beaed4;stroke:#000000;stroke-linejoin:miter;stroke-width:0.8;"/>
   </g>
   <g id="patch_39">
    <path clip-path="url(#p9844367c4a)" d="M 792.342857 193.536 
L 813.6 193.536 
L 813.6 156.672 
L 792.342857 156.672 
z
" style="fill:#beaed4;stroke:#000000;stroke-linejoin:miter;stroke-width:0.8;"/>
   </g>
   <g id="patch_40">
    <path clip-path="url(#p9844367c4a)" d="M 834.857143 202.752 
L 856.114286 202.752 
L 856.114286 156.672 
L 834.857143 156.672 
z
" style="fill:#beaed4;stroke:#000000;stroke-linejoin:miter;stroke-width:0.8;"/>
   </g>
   <g id="patch_41">
    <path clip-path="url(#p9844367c4a)" d="M 877.371429 426.24 
L 898.628571 426.24 
L 898.628571 156.672 
L 877.371429 156.672 
z
" style="fill:#beaed4;stroke:#000000;stroke-linejoin:miter;stroke-width:0.8;"/>
   </g>
   <g id="patch_42">
    <path clip-path="url(#p9844367c4a)" d="M 919.885714 288 
L 941.142857 288 
L 941.142857 156.672 
L 919.885714 156.672 
z
" style="fill:#beaed4;stroke:#000000;stroke-linejoin:miter;stroke-width:0.8;"/>
   </g>
   <g id="patch_43">
    <path clip-path="url(#p9844367c4a)" d="M 962.4 168.192 
L 983.657143 168.192 
L 983.657143 156.672 
L 962.4 156.672 
z
" style="fill:#beaed4;stroke:#000000;stroke-linejoin:miter;stroke-width:0.8;"/>
   </g>
   <g id="patch_44">
    <path clip-path="url(#p9844367c4a)" d="M 1004.914286 246.528 
L 1026.171429 246.528 
L 1026.171429 156.672 
L 1004.914286 156.672 
z
" style="fill:#beaed4;stroke:#000000;stroke-linejoin:miter;stroke-width:0.8;"/>
   </g>
   <g id="patch_45">
    <path d="M 144 518.4 
L 144 57.6 
" style="fill:none;stroke:#000000;stroke-linecap:square;stroke-linejoin:miter;"/>
   </g>
   <g id="patch_46">
    <path d="M 1036.8 518.4 
L 1036.8 57.6 
" style="fill:none;stroke:#000000;stroke-linecap:square;stroke-linejoin:miter;"/>
   </g>
   <g id="patch_47">
    <path d="M 144 518.4 
L 1036.8 518.4 
" style="fill:none;stroke:#000000;stroke-linecap:square;stroke-linejoin:miter;"/>
   </g>
   <g id="patch_48">
    <path d="M 144 57.6 
L 1036.8 57.6 
" style="fill:none;stroke:#000000;stroke-linecap:square;stroke-linejoin:miter;"/>
   </g>
   <g id="matplotlib.axis_1">
    <g id="xtick_1">
     <g id="line2d_1">
      <defs>
       <path d="M 0 0 
L 0 -4.8 
" id="m8e64fcfe2e" style="stroke:#000000;"/>
      </defs>
      <g>
       <use style="stroke:#000000;" x="165.257143" xlink:href="#m8e64fcfe2e" y="518.4"/>
      </g>
     </g>
     <g id="line2d_2">
      <defs>
       <path d="M 0 0 
L 0 4.8 
" id="m10b3c93858" style="stroke:#000000;"/>
      </defs>
      <g>
       <use style="stroke:#000000;" x="165.257143" xlink:href="#m10b3c93858" y="57.6"/>
      </g>
     </g>
     <g id="text_1">
      <!-- Olivine -->
      <defs>
       <path d="M 39.40625 66.21875 
Q 28.65625 66.21875 22.328125 58.203125 
Q 16.015625 50.203125 16.015625 36.375 
Q 16.015625 22.609375 22.328125 14.59375 
Q 28.65625 6.59375 39.40625 6.59375 
Q 50.140625 6.59375 56.421875 14.59375 
Q 62.703125 22.609375 62.703125 36.375 
Q 62.703125 50.203125 56.421875 58.203125 
Q 50.140625 66.21875 39.40625 66.21875 
z
M 39.40625 74.21875 
Q 54.734375 74.21875 63.90625 63.9375 
Q 73.09375 53.65625 73.09375 36.375 
Q 73.09375 19.140625 63.90625 8.859375 
Q 54.734375 -1.421875 39.40625 -1.421875 
Q 24.03125 -1.421875 14.8125 8.828125 
Q 5.609375 19.09375 5.609375 36.375 
Q 5.609375 53.65625 14.8125 63.9375 
Q 24.03125 74.21875 39.40625 74.21875 
z
" id="DejaVuSans-79"/>
       <path d="M 9.421875 75.984375 
L 18.40625 75.984375 
L 18.40625 0 
L 9.421875 0 
z
" id="DejaVuSans-108"/>
       <path d="M 9.421875 54.6875 
L 18.40625 54.6875 
L 18.40625 0 
L 9.421875 0 
z
M 9.421875 75.984375 
L 18.40625 75.984375 
L 18.40625 64.59375 
L 9.421875 64.59375 
z
" id="DejaVuSans-105"/>
       <path d="M 2.984375 54.6875 
L 12.5 54.6875 
L 29.59375 8.796875 
L 46.6875 54.6875 
L 56.203125 54.6875 
L 35.6875 0 
L 23.484375 0 
z
" id="DejaVuSans-118"/>
       <path d="M 54.890625 33.015625 
L 54.890625 0 
L 45.90625 0 
L 45.90625 32.71875 
Q 45.90625 40.484375 42.875 44.328125 
Q 39.84375 48.1875 33.796875 48.1875 
Q 26.515625 48.1875 22.3125 43.546875 
Q 18.109375 38.921875 18.109375 30.90625 
L 18.109375 0 
L 9.078125 0 
L 9.078125 54.6875 
L 18.109375 54.6875 
L 18.109375 46.1875 
Q 21.34375 51.125 25.703125 53.5625 
Q 30.078125 56 35.796875 56 
Q 45.21875 56 50.046875 50.171875 
Q 54.890625 44.34375 54.890625 33.015625 
z
" id="DejaVuSans-110"/>
       <path d="M 56.203125 29.59375 
L 56.203125 25.203125 
L 14.890625 25.203125 
Q 15.484375 15.921875 20.484375 11.0625 
Q 25.484375 6.203125 34.421875 6.203125 
Q 39.59375 6.203125 44.453125 7.46875 
Q 49.3125 8.734375 54.109375 11.28125 
L 54.109375 2.78125 
Q 49.265625 0.734375 44.1875 -0.34375 
Q 39.109375 -1.421875 33.890625 -1.421875 
Q 20.796875 -1.421875 13.15625 6.1875 
Q 5.515625 13.8125 5.515625 26.8125 
Q 5.515625 40.234375 12.765625 48.109375 
Q 20.015625 56 32.328125 56 
Q 43.359375 56 49.78125 48.890625 
Q 56.203125 41.796875 56.203125 29.59375 
z
M 47.21875 32.234375 
Q 47.125 39.59375 43.09375 43.984375 
Q 39.0625 48.390625 32.421875 48.390625 
Q 24.90625 48.390625 20.390625 44.140625 
Q 15.875 39.890625 15.1875 32.171875 
z
" id="DejaVuSans-101"/>
      </defs>
      <g transform="translate(142.423339 548.667868)rotate(-45)scale(0.088 -0.088)">
       <use xlink:href="#DejaVuSans-79"/>
       <use x="78.710938" xlink:href="#DejaVuSans-108"/>
       <use x="106.494141" xlink:href="#DejaVuSans-105"/>
       <use x="134.277344" xlink:href="#DejaVuSans-118"/>
       <use x="193.457031" xlink:href="#DejaVuSans-105"/>
       <use x="221.240234" xlink:href="#DejaVuSans-110"/>
       <use x="284.619141" xlink:href="#DejaVuSans-101"/>
      </g>
     </g>
    </g>
    <g id="xtick_2">
     <g id="line2d_3">
      <g>
       <use style="stroke:#000000;" x="207.771429" xlink:href="#m8e64fcfe2e" y="518.4"/>
      </g>
     </g>
     <g id="line2d_4">
      <g>
       <use style="stroke:#000000;" x="207.771429" xlink:href="#m10b3c93858" y="57.6"/>
      </g>
     </g>
     <g id="text_2">
      <!-- Olivine+ -->
      <defs>
       <path d="M 46 62.703125 
L 46 35.5 
L 73.1875 35.5 
L 73.1875 27.203125 
L 46 27.203125 
L 46 0 
L 37.796875 0 
L 37.796875 27.203125 
L 10.59375 27.203125 
L 10.59375 35.5 
L 37.796875 35.5 
L 37.796875 62.703125 
z
" id="DejaVuSans-43"/>
      </defs>
      <g transform="translate(179.723331 553.882162)rotate(-45)scale(0.088 -0.088)">
       <use xlink:href="#DejaVuSans-79"/>
       <use x="78.710938" xlink:href="#DejaVuSans-108"/>
       <use x="106.494141" xlink:href="#DejaVuSans-105"/>
       <use x="134.277344" xlink:href="#DejaVuSans-118"/>
       <use x="193.457031" xlink:href="#DejaVuSans-105"/>
       <use x="221.240234" xlink:href="#DejaVuSans-110"/>
       <use x="284.619141" xlink:href="#DejaVuSans-101"/>
       <use x="346.142578" xlink:href="#DejaVuSans-43"/>
      </g>
     </g>
    </g>
    <g id="xtick_3">
     <g id="line2d_5">
      <g>
       <use style="stroke:#000000;" x="250.285714" xlink:href="#m8e64fcfe2e" y="518.4"/>
      </g>
     </g>
     <g id="line2d_6">
      <g>
       <use style="stroke:#000000;" x="250.285714" xlink:href="#m10b3c93858" y="57.6"/>
      </g>
     </g>
     <g id="text_3">
      <!-- Olivine- -->
      <defs>
       <path d="M 4.890625 31.390625 
L 31.203125 31.390625 
L 31.203125 23.390625 
L 4.890625 23.390625 
z
" id="DejaVuSans-45"/>
      </defs>
      <g transform="translate(225.206935 550.912844)rotate(-45)scale(0.088 -0.088)">
       <use xlink:href="#DejaVuSans-79"/>
       <use x="78.710938" xlink:href="#DejaVuSans-108"/>
       <use x="106.494141" xlink:href="#DejaVuSans-105"/>
       <use x="134.277344" xlink:href="#DejaVuSans-118"/>
       <use x="193.457031" xlink:href="#DejaVuSans-105"/>
       <use x="221.240234" xlink:href="#DejaVuSans-110"/>
       <use x="284.619141" xlink:href="#DejaVuSans-101"/>
       <use x="346.142578" xlink:href="#DejaVuSans-45"/>
      </g>
     </g>
    </g>
    <g id="xtick_4">
     <g id="line2d_7">
      <g>
       <use style="stroke:#000000;" x="292.8" xlink:href="#m8e64fcfe2e" y="518.4"/>
      </g>
     </g>
     <g id="line2d_8">
      <g>
       <use style="stroke:#000000;" x="292.8" xlink:href="#m10b3c93858" y="57.6"/>
      </g>
     </g>
     <g id="text_4">
      <!-- Peridotite -->
      <defs>
       <path d="M 19.671875 64.796875 
L 19.671875 37.40625 
L 32.078125 37.40625 
Q 38.96875 37.40625 42.71875 40.96875 
Q 46.484375 44.53125 46.484375 51.125 
Q 46.484375 57.671875 42.71875 61.234375 
Q 38.96875 64.796875 32.078125 64.796875 
z
M 9.8125 72.90625 
L 32.078125 72.90625 
Q 44.34375 72.90625 50.609375 67.359375 
Q 56.890625 61.8125 56.890625 51.125 
Q 56.890625 40.328125 50.609375 34.8125 
Q 44.34375 29.296875 32.078125 29.296875 
L 19.671875 29.296875 
L 19.671875 0 
L 9.8125 0 
z
" id="DejaVuSans-80"/>
       <path d="M 41.109375 46.296875 
Q 39.59375 47.171875 37.8125 47.578125 
Q 36.03125 48 33.890625 48 
Q 26.265625 48 22.1875 43.046875 
Q 18.109375 38.09375 18.109375 28.8125 
L 18.109375 0 
L 9.078125 0 
L 9.078125 54.6875 
L 18.109375 54.6875 
L 18.109375 46.1875 
Q 20.953125 51.171875 25.484375 53.578125 
Q 30.03125 56 36.53125 56 
Q 37.453125 56 38.578125 55.875 
Q 39.703125 55.765625 41.0625 55.515625 
z
" id="DejaVuSans-114"/>
       <path d="M 45.40625 46.390625 
L 45.40625 75.984375 
L 54.390625 75.984375 
L 54.390625 0 
L 45.40625 0 
L 45.40625 8.203125 
Q 42.578125 3.328125 38.25 0.953125 
Q 33.9375 -1.421875 27.875 -1.421875 
Q 17.96875 -1.421875 11.734375 6.484375 
Q 5.515625 14.40625 5.515625 27.296875 
Q 5.515625 40.1875 11.734375 48.09375 
Q 17.96875 56 27.875 56 
Q 33.9375 56 38.25 53.625 
Q 42.578125 51.265625 45.40625 46.390625 
z
M 14.796875 27.296875 
Q 14.796875 17.390625 18.875 11.75 
Q 22.953125 6.109375 30.078125 6.109375 
Q 37.203125 6.109375 41.296875 11.75 
Q 45.40625 17.390625 45.40625 27.296875 
Q 45.40625 37.203125 41.296875 42.84375 
Q 37.203125 48.484375 30.078125 48.484375 
Q 22.953125 48.484375 18.875 42.84375 
Q 14.796875 37.203125 14.796875 27.296875 
z
" id="DejaVuSans-100"/>
       <path d="M 30.609375 48.390625 
Q 23.390625 48.390625 19.1875 42.75 
Q 14.984375 37.109375 14.984375 27.296875 
Q 14.984375 17.484375 19.15625 11.84375 
Q 23.34375 6.203125 30.609375 6.203125 
Q 37.796875 6.203125 41.984375 11.859375 
Q 46.1875 17.53125 46.1875 27.296875 
Q 46.1875 37.015625 41.984375 42.703125 
Q 37.796875 48.390625 30.609375 48.390625 
z
M 30.609375 56 
Q 42.328125 56 49.015625 48.375 
Q 55.71875 40.765625 55.71875 27.296875 
Q 55.71875 13.875 49.015625 6.21875 
Q 42.328125 -1.421875 30.609375 -1.421875 
Q 18.84375 -1.421875 12.171875 6.21875 
Q 5.515625 13.875 5.515625 27.296875 
Q 5.515625 40.765625 12.171875 48.375 
Q 18.84375 56 30.609375 56 
z
" id="DejaVuSans-111"/>
       <path d="M 18.3125 70.21875 
L 18.3125 54.6875 
L 36.8125 54.6875 
L 36.8125 47.703125 
L 18.3125 47.703125 
L 18.3125 18.015625 
Q 18.3125 11.328125 20.140625 9.421875 
Q 21.96875 7.515625 27.59375 7.515625 
L 36.8125 7.515625 
L 36.8125 0 
L 27.59375 0 
Q 17.1875 0 13.234375 3.875 
Q 9.28125 7.765625 9.28125 18.015625 
L 9.28125 47.703125 
L 2.6875 47.703125 
L 2.6875 54.6875 
L 9.28125 54.6875 
L 9.28125 70.21875 
z
" id="DejaVuSans-116"/>
      </defs>
      <g transform="translate(261.44715 557.186914)rotate(-45)scale(0.088 -0.088)">
       <use xlink:href="#DejaVuSans-80"/>
       <use x="60.255859" xlink:href="#DejaVuSans-101"/>
       <use x="121.779297" xlink:href="#DejaVuSans-114"/>
       <use x="162.892578" xlink:href="#DejaVuSans-105"/>
       <use x="190.675781" xlink:href="#DejaVuSans-100"/>
       <use x="254.152344" xlink:href="#DejaVuSans-111"/>
       <use x="315.333984" xlink:href="#DejaVuSans-116"/>
       <use x="354.542969" xlink:href="#DejaVuSans-105"/>
       <use x="382.326172" xlink:href="#DejaVuSans-116"/>
       <use x="421.535156" xlink:href="#DejaVuSans-101"/>
      </g>
     </g>
    </g>
    <g id="xtick_5">
     <g id="line2d_9">
      <g>
       <use style="stroke:#000000;" x="335.314286" xlink:href="#m8e64fcfe2e" y="518.4"/>
      </g>
     </g>
     <g id="line2d_10">
      <g>
       <use style="stroke:#000000;" x="335.314286" xlink:href="#m10b3c93858" y="57.6"/>
      </g>
     </g>
     <g id="text_5">
      <!-- No_solid -->
      <defs>
       <path d="M 9.8125 72.90625 
L 23.09375 72.90625 
L 55.421875 11.921875 
L 55.421875 72.90625 
L 64.984375 72.90625 
L 64.984375 0 
L 51.703125 0 
L 19.390625 60.984375 
L 19.390625 0 
L 9.8125 0 
z
" id="DejaVuSans-78"/>
       <path d="M 50.984375 -16.609375 
L 50.984375 -23.578125 
L -0.984375 -23.578125 
L -0.984375 -16.609375 
z
" id="DejaVuSans-95"/>
       <path d="M 44.28125 53.078125 
L 44.28125 44.578125 
Q 40.484375 46.53125 36.375 47.5 
Q 32.28125 48.484375 27.875 48.484375 
Q 21.1875 48.484375 17.84375 46.4375 
Q 14.5 44.390625 14.5 40.28125 
Q 14.5 37.15625 16.890625 35.375 
Q 19.28125 33.59375 26.515625 31.984375 
L 29.59375 31.296875 
Q 39.15625 29.25 43.1875 25.515625 
Q 47.21875 21.78125 47.21875 15.09375 
Q 47.21875 7.46875 41.1875 3.015625 
Q 35.15625 -1.421875 24.609375 -1.421875 
Q 20.21875 -1.421875 15.453125 -0.5625 
Q 10.6875 0.296875 5.421875 2 
L 5.421875 11.28125 
Q 10.40625 8.6875 15.234375 7.390625 
Q 20.0625 6.109375 24.8125 6.109375 
Q 31.15625 6.109375 34.5625 8.28125 
Q 37.984375 10.453125 37.984375 14.40625 
Q 37.984375 18.0625 35.515625 20.015625 
Q 33.0625 21.96875 24.703125 23.78125 
L 21.578125 24.515625 
Q 13.234375 26.265625 9.515625 29.90625 
Q 5.8125 33.546875 5.8125 39.890625 
Q 5.8125 47.609375 11.28125 51.796875 
Q 16.75 56 26.8125 56 
Q 31.78125 56 36.171875 55.265625 
Q 40.578125 54.546875 44.28125 53.078125 
z
" id="DejaVuSans-115"/>
      </defs>
      <g transform="translate(307.816494 553.158791)rotate(-45)scale(0.088 -0.088)">
       <use xlink:href="#DejaVuSans-78"/>
       <use x="74.804688" xlink:href="#DejaVuSans-111"/>
       <use x="135.986328" xlink:href="#DejaVuSans-95"/>
       <use x="185.986328" xlink:href="#DejaVuSans-115"/>
       <use x="238.085938" xlink:href="#DejaVuSans-111"/>
       <use x="299.267578" xlink:href="#DejaVuSans-108"/>
       <use x="327.050781" xlink:href="#DejaVuSans-105"/>
       <use x="354.833984" xlink:href="#DejaVuSans-100"/>
      </g>
     </g>
    </g>
    <g id="xtick_6">
     <g id="line2d_11">
      <g>
       <use style="stroke:#000000;" x="377.828571" xlink:href="#m8e64fcfe2e" y="518.4"/>
      </g>
     </g>
     <g id="line2d_12">
      <g>
       <use style="stroke:#000000;" x="377.828571" xlink:href="#m10b3c93858" y="57.6"/>
      </g>
     </g>
     <g id="text_6">
      <!-- isBlank -->
      <defs>
       <path d="M 19.671875 34.8125 
L 19.671875 8.109375 
L 35.5 8.109375 
Q 43.453125 8.109375 47.28125 11.40625 
Q 51.125 14.703125 51.125 21.484375 
Q 51.125 28.328125 47.28125 31.5625 
Q 43.453125 34.8125 35.5 34.8125 
z
M 19.671875 64.796875 
L 19.671875 42.828125 
L 34.28125 42.828125 
Q 41.5 42.828125 45.03125 45.53125 
Q 48.578125 48.25 48.578125 53.8125 
Q 48.578125 59.328125 45.03125 62.0625 
Q 41.5 64.796875 34.28125 64.796875 
z
M 9.8125 72.90625 
L 35.015625 72.90625 
Q 46.296875 72.90625 52.390625 68.21875 
Q 58.5 63.53125 58.5 54.890625 
Q 58.5 48.1875 55.375 44.234375 
Q 52.25 40.28125 46.1875 39.3125 
Q 53.46875 37.75 57.5 32.78125 
Q 61.53125 27.828125 61.53125 20.40625 
Q 61.53125 10.640625 54.890625 5.3125 
Q 48.25 0 35.984375 0 
L 9.8125 0 
z
" id="DejaVuSans-66"/>
       <path d="M 34.28125 27.484375 
Q 23.390625 27.484375 19.1875 25 
Q 14.984375 22.515625 14.984375 16.5 
Q 14.984375 11.71875 18.140625 8.90625 
Q 21.296875 6.109375 26.703125 6.109375 
Q 34.1875 6.109375 38.703125 11.40625 
Q 43.21875 16.703125 43.21875 25.484375 
L 43.21875 27.484375 
z
M 52.203125 31.203125 
L 52.203125 0 
L 43.21875 0 
L 43.21875 8.296875 
Q 40.140625 3.328125 35.546875 0.953125 
Q 30.953125 -1.421875 24.3125 -1.421875 
Q 15.921875 -1.421875 10.953125 3.296875 
Q 6 8.015625 6 15.921875 
Q 6 25.140625 12.171875 29.828125 
Q 18.359375 34.515625 30.609375 34.515625 
L 43.21875 34.515625 
L 43.21875 35.40625 
Q 43.21875 41.609375 39.140625 45 
Q 35.0625 48.390625 27.6875 48.390625 
Q 23 48.390625 18.546875 47.265625 
Q 14.109375 46.140625 10.015625 43.890625 
L 10.015625 52.203125 
Q 14.9375 54.109375 19.578125 55.046875 
Q 24.21875 56 28.609375 56 
Q 40.484375 56 46.34375 49.84375 
Q 52.203125 43.703125 52.203125 31.203125 
z
" id="DejaVuSans-97"/>
       <path d="M 9.078125 75.984375 
L 18.109375 75.984375 
L 18.109375 31.109375 
L 44.921875 54.6875 
L 56.390625 54.6875 
L 27.390625 29.109375 
L 57.625 0 
L 45.90625 0 
L 18.109375 26.703125 
L 18.109375 0 
L 9.078125 0 
z
" id="DejaVuSans-107"/>
      </defs>
      <g transform="translate(354.206255 549.45638)rotate(-45)scale(0.088 -0.088)">
       <use xlink:href="#DejaVuSans-105"/>
       <use x="27.783203" xlink:href="#DejaVuSans-115"/>
       <use x="79.882812" xlink:href="#DejaVuSans-66"/>
       <use x="148.486328" xlink:href="#DejaVuSans-108"/>
       <use x="176.269531" xlink:href="#DejaVuSans-97"/>
       <use x="237.548828" xlink:href="#DejaVuSans-110"/>
       <use x="300.927734" xlink:href="#DejaVuSans-107"/>
      </g>
     </g>
    </g>
    <g id="xtick_7">
     <g id="line2d_13">
      <g>
       <use style="stroke:#000000;" x="420.342857" xlink:href="#m8e64fcfe2e" y="518.4"/>
      </g>
     </g>
     <g id="line2d_14">
      <g>
       <use style="stroke:#000000;" x="420.342857" xlink:href="#m10b3c93858" y="57.6"/>
      </g>
     </g>
     <g id="text_7">
      <!-- Water -->
      <defs>
       <path d="M 3.328125 72.90625 
L 13.28125 72.90625 
L 28.609375 11.28125 
L 43.890625 72.90625 
L 54.984375 72.90625 
L 70.3125 11.28125 
L 85.59375 72.90625 
L 95.609375 72.90625 
L 77.296875 0 
L 64.890625 0 
L 49.515625 63.28125 
L 33.984375 0 
L 21.578125 0 
z
" id="DejaVuSans-87"/>
      </defs>
      <g transform="translate(400.262527 545.914394)rotate(-45)scale(0.088 -0.088)">
       <use xlink:href="#DejaVuSans-87"/>
       <use x="98.783203" xlink:href="#DejaVuSans-97"/>
       <use x="160.0625" xlink:href="#DejaVuSans-116"/>
       <use x="199.271484" xlink:href="#DejaVuSans-101"/>
       <use x="260.794922" xlink:href="#DejaVuSans-114"/>
      </g>
     </g>
    </g>
    <g id="xtick_8">
     <g id="line2d_15">
      <g>
       <use style="stroke:#000000;" x="462.857143" xlink:href="#m8e64fcfe2e" y="518.4"/>
      </g>
     </g>
     <g id="line2d_16">
      <g>
       <use style="stroke:#000000;" x="462.857143" xlink:href="#m10b3c93858" y="57.6"/>
      </g>
     </g>
     <g id="text_8">
      <!-- NaCl -->
      <defs>
       <path d="M 64.40625 67.28125 
L 64.40625 56.890625 
Q 59.421875 61.53125 53.78125 63.8125 
Q 48.140625 66.109375 41.796875 66.109375 
Q 29.296875 66.109375 22.65625 58.46875 
Q 16.015625 50.828125 16.015625 36.375 
Q 16.015625 21.96875 22.65625 14.328125 
Q 29.296875 6.6875 41.796875 6.6875 
Q 48.140625 6.6875 53.78125 8.984375 
Q 59.421875 11.28125 64.40625 15.921875 
L 64.40625 5.609375 
Q 59.234375 2.09375 53.4375 0.328125 
Q 47.65625 -1.421875 41.21875 -1.421875 
Q 24.65625 -1.421875 15.125 8.703125 
Q 5.609375 18.84375 5.609375 36.375 
Q 5.609375 53.953125 15.125 64.078125 
Q 24.65625 74.21875 41.21875 74.21875 
Q 47.75 74.21875 53.53125 72.484375 
Q 59.328125 70.75 64.40625 67.28125 
z
" id="DejaVuSans-67"/>
      </defs>
      <g transform="translate(447.020779 541.670428)rotate(-45)scale(0.088 -0.088)">
       <use xlink:href="#DejaVuSans-78"/>
       <use x="74.804688" xlink:href="#DejaVuSans-97"/>
       <use x="136.083984" xlink:href="#DejaVuSans-67"/>
       <use x="205.908203" xlink:href="#DejaVuSans-108"/>
      </g>
     </g>
    </g>
    <g id="xtick_9">
     <g id="line2d_17">
      <g>
       <use style="stroke:#000000;" x="505.371429" xlink:href="#m8e64fcfe2e" y="518.4"/>
      </g>
     </g>
     <g id="line2d_18">
      <g>
       <use style="stroke:#000000;" x="505.371429" xlink:href="#m10b3c93858" y="57.6"/>
      </g>
     </g>
     <g id="text_9">
      <!-- NaHCO3 -->
      <defs>
       <path d="M 9.8125 72.90625 
L 19.671875 72.90625 
L 19.671875 43.015625 
L 55.515625 43.015625 
L 55.515625 72.90625 
L 65.375 72.90625 
L 65.375 0 
L 55.515625 0 
L 55.515625 34.71875 
L 19.671875 34.71875 
L 19.671875 0 
L 9.8125 0 
z
" id="DejaVuSans-72"/>
       <path d="M 40.578125 39.3125 
Q 47.65625 37.796875 51.625 33 
Q 55.609375 28.21875 55.609375 21.1875 
Q 55.609375 10.40625 48.1875 4.484375 
Q 40.765625 -1.421875 27.09375 -1.421875 
Q 22.515625 -1.421875 17.65625 -0.515625 
Q 12.796875 0.390625 7.625 2.203125 
L 7.625 11.71875 
Q 11.71875 9.328125 16.59375 8.109375 
Q 21.484375 6.890625 26.8125 6.890625 
Q 36.078125 6.890625 40.9375 10.546875 
Q 45.796875 14.203125 45.796875 21.1875 
Q 45.796875 27.640625 41.28125 31.265625 
Q 36.765625 34.90625 28.71875 34.90625 
L 20.21875 34.90625 
L 20.21875 43.015625 
L 29.109375 43.015625 
Q 36.375 43.015625 40.234375 45.921875 
Q 44.09375 48.828125 44.09375 54.296875 
Q 44.09375 59.90625 40.109375 62.90625 
Q 36.140625 65.921875 28.71875 65.921875 
Q 24.65625 65.921875 20.015625 65.03125 
Q 15.375 64.15625 9.8125 62.3125 
L 9.8125 71.09375 
Q 15.4375 72.65625 20.34375 73.4375 
Q 25.25 74.21875 29.59375 74.21875 
Q 40.828125 74.21875 47.359375 69.109375 
Q 53.90625 64.015625 53.90625 55.328125 
Q 53.90625 49.265625 50.4375 45.09375 
Q 46.96875 40.921875 40.578125 39.3125 
z
" id="DejaVuSans-51"/>
      </defs>
      <g transform="translate(477.726824 553.478669)rotate(-45)scale(0.088 -0.088)">
       <use xlink:href="#DejaVuSans-78"/>
       <use x="74.804688" xlink:href="#DejaVuSans-97"/>
       <use x="136.083984" xlink:href="#DejaVuSans-72"/>
       <use x="211.279297" xlink:href="#DejaVuSans-67"/>
       <use x="281.103516" xlink:href="#DejaVuSans-79"/>
       <use x="359.814453" xlink:href="#DejaVuSans-51"/>
      </g>
     </g>
    </g>
    <g id="xtick_10">
     <g id="line2d_19">
      <g>
       <use style="stroke:#000000;" x="547.885714" xlink:href="#m8e64fcfe2e" y="518.4"/>
      </g>
     </g>
     <g id="line2d_20">
      <g>
       <use style="stroke:#000000;" x="547.885714" xlink:href="#m10b3c93858" y="57.6"/>
      </g>
     </g>
     <g id="text_10">
      <!-- HCOOH -->
      <g transform="translate(523.090838 550.62894)rotate(-45)scale(0.088 -0.088)">
       <use xlink:href="#DejaVuSans-72"/>
       <use x="75.195312" xlink:href="#DejaVuSans-67"/>
       <use x="145.019531" xlink:href="#DejaVuSans-79"/>
       <use x="223.730469" xlink:href="#DejaVuSans-79"/>
       <use x="302.441406" xlink:href="#DejaVuSans-72"/>
      </g>
     </g>
    </g>
    <g id="xtick_11">
     <g id="line2d_21">
      <g>
       <use style="stroke:#000000;" x="590.4" xlink:href="#m8e64fcfe2e" y="518.4"/>
      </g>
     </g>
     <g id="line2d_22">
      <g>
       <use style="stroke:#000000;" x="590.4" xlink:href="#m10b3c93858" y="57.6"/>
      </g>
     </g>
     <g id="text_11">
      <!-- Other_salt -->
      <defs>
       <path d="M 54.890625 33.015625 
L 54.890625 0 
L 45.90625 0 
L 45.90625 32.71875 
Q 45.90625 40.484375 42.875 44.328125 
Q 39.84375 48.1875 33.796875 48.1875 
Q 26.515625 48.1875 22.3125 43.546875 
Q 18.109375 38.921875 18.109375 30.90625 
L 18.109375 0 
L 9.078125 0 
L 9.078125 75.984375 
L 18.109375 75.984375 
L 18.109375 46.1875 
Q 21.34375 51.125 25.703125 53.5625 
Q 30.078125 56 35.796875 56 
Q 45.21875 56 50.046875 50.171875 
Q 54.890625 44.34375 54.890625 33.015625 
z
" id="DejaVuSans-104"/>
      </defs>
      <g transform="translate(556.930515 559.130485)rotate(-45)scale(0.088 -0.088)">
       <use xlink:href="#DejaVuSans-79"/>
       <use x="78.710938" xlink:href="#DejaVuSans-116"/>
       <use x="117.919922" xlink:href="#DejaVuSans-104"/>
       <use x="181.298828" xlink:href="#DejaVuSans-101"/>
       <use x="242.822266" xlink:href="#DejaVuSans-114"/>
       <use x="283.935547" xlink:href="#DejaVuSans-95"/>
       <use x="333.935547" xlink:href="#DejaVuSans-115"/>
       <use x="386.035156" xlink:href="#DejaVuSans-97"/>
       <use x="447.314453" xlink:href="#DejaVuSans-108"/>
       <use x="475.097656" xlink:href="#DejaVuSans-116"/>
      </g>
     </g>
    </g>
    <g id="xtick_12">
     <g id="line2d_23">
      <g>
       <use style="stroke:#000000;" x="632.914286" xlink:href="#m8e64fcfe2e" y="518.4"/>
      </g>
     </g>
     <g id="line2d_24">
      <g>
       <use style="stroke:#000000;" x="632.914286" xlink:href="#m10b3c93858" y="57.6"/>
      </g>
     </g>
     <g id="text_12">
      <!-- Presence_catalyst -->
      <defs>
       <path d="M 48.78125 52.59375 
L 48.78125 44.1875 
Q 44.96875 46.296875 41.140625 47.34375 
Q 37.3125 48.390625 33.40625 48.390625 
Q 24.65625 48.390625 19.8125 42.84375 
Q 14.984375 37.3125 14.984375 27.296875 
Q 14.984375 17.28125 19.8125 11.734375 
Q 24.65625 6.203125 33.40625 6.203125 
Q 37.3125 6.203125 41.140625 7.25 
Q 44.96875 8.296875 48.78125 10.40625 
L 48.78125 2.09375 
Q 45.015625 0.34375 40.984375 -0.53125 
Q 36.96875 -1.421875 32.421875 -1.421875 
Q 20.0625 -1.421875 12.78125 6.34375 
Q 5.515625 14.109375 5.515625 27.296875 
Q 5.515625 40.671875 12.859375 48.328125 
Q 20.21875 56 33.015625 56 
Q 37.15625 56 41.109375 55.140625 
Q 45.0625 54.296875 48.78125 52.59375 
z
" id="DejaVuSans-99"/>
       <path d="M 32.171875 -5.078125 
Q 28.375 -14.84375 24.75 -17.8125 
Q 21.140625 -20.796875 15.09375 -20.796875 
L 7.90625 -20.796875 
L 7.90625 -13.28125 
L 13.1875 -13.28125 
Q 16.890625 -13.28125 18.9375 -11.515625 
Q 21 -9.765625 23.484375 -3.21875 
L 25.09375 0.875 
L 2.984375 54.6875 
L 12.5 54.6875 
L 29.59375 11.921875 
L 46.6875 54.6875 
L 56.203125 54.6875 
z
" id="DejaVuSans-121"/>
      </defs>
      <g transform="translate(575.355794 583.219492)rotate(-45)scale(0.088 -0.088)">
       <use xlink:href="#DejaVuSans-80"/>
       <use x="60.287109" xlink:href="#DejaVuSans-114"/>
       <use x="101.369141" xlink:href="#DejaVuSans-101"/>
       <use x="162.892578" xlink:href="#DejaVuSans-115"/>
       <use x="214.992188" xlink:href="#DejaVuSans-101"/>
       <use x="276.515625" xlink:href="#DejaVuSans-110"/>
       <use x="339.894531" xlink:href="#DejaVuSans-99"/>
       <use x="394.875" xlink:href="#DejaVuSans-101"/>
       <use x="456.398438" xlink:href="#DejaVuSans-95"/>
       <use x="506.398438" xlink:href="#DejaVuSans-99"/>
       <use x="561.378906" xlink:href="#DejaVuSans-97"/>
       <use x="622.658203" xlink:href="#DejaVuSans-116"/>
       <use x="661.867188" xlink:href="#DejaVuSans-97"/>
       <use x="723.146484" xlink:href="#DejaVuSans-108"/>
       <use x="750.929688" xlink:href="#DejaVuSans-121"/>
       <use x="810.109375" xlink:href="#DejaVuSans-115"/>
       <use x="862.208984" xlink:href="#DejaVuSans-116"/>
      </g>
     </g>
    </g>
    <g id="xtick_13">
     <g id="line2d_25">
      <g>
       <use style="stroke:#000000;" x="675.428571" xlink:href="#m8e64fcfe2e" y="518.4"/>
      </g>
     </g>
     <g id="line2d_26">
      <g>
       <use style="stroke:#000000;" x="675.428571" xlink:href="#m10b3c93858" y="57.6"/>
      </g>
     </g>
     <g id="text_13">
      <!-- Spinel -->
      <defs>
       <path d="M 53.515625 70.515625 
L 53.515625 60.890625 
Q 47.90625 63.578125 42.921875 64.890625 
Q 37.9375 66.21875 33.296875 66.21875 
Q 25.25 66.21875 20.875 63.09375 
Q 16.5 59.96875 16.5 54.203125 
Q 16.5 49.359375 19.40625 46.890625 
Q 22.3125 44.4375 30.421875 42.921875 
L 36.375 41.703125 
Q 47.40625 39.59375 52.65625 34.296875 
Q 57.90625 29 57.90625 20.125 
Q 57.90625 9.515625 50.796875 4.046875 
Q 43.703125 -1.421875 29.984375 -1.421875 
Q 24.8125 -1.421875 18.96875 -0.25 
Q 13.140625 0.921875 6.890625 3.21875 
L 6.890625 13.375 
Q 12.890625 10.015625 18.65625 8.296875 
Q 24.421875 6.59375 29.984375 6.59375 
Q 38.421875 6.59375 43.015625 9.90625 
Q 47.609375 13.234375 47.609375 19.390625 
Q 47.609375 24.75 44.3125 27.78125 
Q 41.015625 30.8125 33.5 32.328125 
L 27.484375 33.5 
Q 16.453125 35.6875 11.515625 40.375 
Q 6.59375 45.0625 6.59375 53.421875 
Q 6.59375 63.09375 13.40625 68.65625 
Q 20.21875 74.21875 32.171875 74.21875 
Q 37.3125 74.21875 42.625 73.28125 
Q 47.953125 72.359375 53.515625 70.515625 
z
" id="DejaVuSans-83"/>
       <path d="M 18.109375 8.203125 
L 18.109375 -20.796875 
L 9.078125 -20.796875 
L 9.078125 54.6875 
L 18.109375 54.6875 
L 18.109375 46.390625 
Q 20.953125 51.265625 25.265625 53.625 
Q 29.59375 56 35.59375 56 
Q 45.5625 56 51.78125 48.09375 
Q 58.015625 40.1875 58.015625 27.296875 
Q 58.015625 14.40625 51.78125 6.484375 
Q 45.5625 -1.421875 35.59375 -1.421875 
Q 29.59375 -1.421875 25.265625 0.953125 
Q 20.953125 3.328125 18.109375 8.203125 
z
M 48.6875 27.296875 
Q 48.6875 37.203125 44.609375 42.84375 
Q 40.53125 48.484375 33.40625 48.484375 
Q 26.265625 48.484375 22.1875 42.84375 
Q 18.109375 37.203125 18.109375 27.296875 
Q 18.109375 17.390625 22.1875 11.75 
Q 26.265625 6.109375 33.40625 6.109375 
Q 40.53125 6.109375 44.609375 11.75 
Q 48.6875 17.390625 48.6875 27.296875 
z
" id="DejaVuSans-112"/>
      </defs>
      <g transform="translate(655.004057 546.258578)rotate(-45)scale(0.088 -0.088)">
       <use xlink:href="#DejaVuSans-83"/>
       <use x="63.476562" xlink:href="#DejaVuSans-112"/>
       <use x="126.953125" xlink:href="#DejaVuSans-105"/>
       <use x="154.736328" xlink:href="#DejaVuSans-110"/>
       <use x="218.115234" xlink:href="#DejaVuSans-101"/>
       <use x="279.638672" xlink:href="#DejaVuSans-108"/>
      </g>
     </g>
    </g>
    <g id="xtick_14">
     <g id="line2d_27">
      <g>
       <use style="stroke:#000000;" x="717.942857" xlink:href="#m8e64fcfe2e" y="518.4"/>
      </g>
     </g>
     <g id="line2d_28">
      <g>
       <use style="stroke:#000000;" x="717.942857" xlink:href="#m10b3c93858" y="57.6"/>
      </g>
     </g>
     <g id="text_14">
      <!-- Magnetite -->
      <defs>
       <path d="M 9.8125 72.90625 
L 24.515625 72.90625 
L 43.109375 23.296875 
L 61.8125 72.90625 
L 76.515625 72.90625 
L 76.515625 0 
L 66.890625 0 
L 66.890625 64.015625 
L 48.09375 14.015625 
L 38.1875 14.015625 
L 19.390625 64.015625 
L 19.390625 0 
L 9.8125 0 
z
" id="DejaVuSans-77"/>
       <path d="M 45.40625 27.984375 
Q 45.40625 37.75 41.375 43.109375 
Q 37.359375 48.484375 30.078125 48.484375 
Q 22.859375 48.484375 18.828125 43.109375 
Q 14.796875 37.75 14.796875 27.984375 
Q 14.796875 18.265625 18.828125 12.890625 
Q 22.859375 7.515625 30.078125 7.515625 
Q 37.359375 7.515625 41.375 12.890625 
Q 45.40625 18.265625 45.40625 27.984375 
z
M 54.390625 6.78125 
Q 54.390625 -7.171875 48.1875 -13.984375 
Q 42 -20.796875 29.203125 -20.796875 
Q 24.46875 -20.796875 20.265625 -20.09375 
Q 16.0625 -19.390625 12.109375 -17.921875 
L 12.109375 -9.1875 
Q 16.0625 -11.328125 19.921875 -12.34375 
Q 23.78125 -13.375 27.78125 -13.375 
Q 36.625 -13.375 41.015625 -8.765625 
Q 45.40625 -4.15625 45.40625 5.171875 
L 45.40625 9.625 
Q 42.625 4.78125 38.28125 2.390625 
Q 33.9375 0 27.875 0 
Q 17.828125 0 11.671875 7.65625 
Q 5.515625 15.328125 5.515625 27.984375 
Q 5.515625 40.671875 11.671875 48.328125 
Q 17.828125 56 27.875 56 
Q 33.9375 56 38.28125 53.609375 
Q 42.625 51.21875 45.40625 46.390625 
L 45.40625 54.6875 
L 54.390625 54.6875 
z
" id="DejaVuSans-103"/>
      </defs>
      <g transform="translate(685.307581 558.46934)rotate(-45)scale(0.088 -0.088)">
       <use xlink:href="#DejaVuSans-77"/>
       <use x="86.279297" xlink:href="#DejaVuSans-97"/>
       <use x="147.558594" xlink:href="#DejaVuSans-103"/>
       <use x="211.035156" xlink:href="#DejaVuSans-110"/>
       <use x="274.414062" xlink:href="#DejaVuSans-101"/>
       <use x="335.9375" xlink:href="#DejaVuSans-116"/>
       <use x="375.146484" xlink:href="#DejaVuSans-105"/>
       <use x="402.929688" xlink:href="#DejaVuSans-116"/>
       <use x="442.138672" xlink:href="#DejaVuSans-101"/>
      </g>
     </g>
    </g>
    <g id="xtick_15">
     <g id="line2d_29">
      <g>
       <use style="stroke:#000000;" x="760.457143" xlink:href="#m8e64fcfe2e" y="518.4"/>
      </g>
     </g>
     <g id="line2d_30">
      <g>
       <use style="stroke:#000000;" x="760.457143" xlink:href="#m10b3c93858" y="57.6"/>
      </g>
     </g>
     <g id="text_15">
      <!-- Chromite -->
      <defs>
       <path d="M 52 44.1875 
Q 55.375 50.25 60.0625 53.125 
Q 64.75 56 71.09375 56 
Q 79.640625 56 84.28125 50.015625 
Q 88.921875 44.046875 88.921875 33.015625 
L 88.921875 0 
L 79.890625 0 
L 79.890625 32.71875 
Q 79.890625 40.578125 77.09375 44.375 
Q 74.3125 48.1875 68.609375 48.1875 
Q 61.625 48.1875 57.5625 43.546875 
Q 53.515625 38.921875 53.515625 30.90625 
L 53.515625 0 
L 44.484375 0 
L 44.484375 32.71875 
Q 44.484375 40.625 41.703125 44.40625 
Q 38.921875 48.1875 33.109375 48.1875 
Q 26.21875 48.1875 22.15625 43.53125 
Q 18.109375 38.875 18.109375 30.90625 
L 18.109375 0 
L 9.078125 0 
L 9.078125 54.6875 
L 18.109375 54.6875 
L 18.109375 46.1875 
Q 21.1875 51.21875 25.484375 53.609375 
Q 29.78125 56 35.6875 56 
Q 41.65625 56 45.828125 52.96875 
Q 50 49.953125 52 44.1875 
z
" id="DejaVuSans-109"/>
      </defs>
      <g transform="translate(730.452834 555.838373)rotate(-45)scale(0.088 -0.088)">
       <use xlink:href="#DejaVuSans-67"/>
       <use x="69.824219" xlink:href="#DejaVuSans-104"/>
       <use x="133.203125" xlink:href="#DejaVuSans-114"/>
       <use x="174.285156" xlink:href="#DejaVuSans-111"/>
       <use x="235.466797" xlink:href="#DejaVuSans-109"/>
       <use x="332.878906" xlink:href="#DejaVuSans-105"/>
       <use x="360.662109" xlink:href="#DejaVuSans-116"/>
       <use x="399.871094" xlink:href="#DejaVuSans-101"/>
      </g>
     </g>
    </g>
    <g id="xtick_16">
     <g id="line2d_31">
      <g>
       <use style="stroke:#000000;" x="802.971429" xlink:href="#m8e64fcfe2e" y="518.4"/>
      </g>
     </g>
     <g id="line2d_32">
      <g>
       <use style="stroke:#000000;" x="802.971429" xlink:href="#m10b3c93858" y="57.6"/>
      </g>
     </g>
     <g id="text_16">
      <!-- Ni_bearing -->
      <defs>
       <path d="M 48.6875 27.296875 
Q 48.6875 37.203125 44.609375 42.84375 
Q 40.53125 48.484375 33.40625 48.484375 
Q 26.265625 48.484375 22.1875 42.84375 
Q 18.109375 37.203125 18.109375 27.296875 
Q 18.109375 17.390625 22.1875 11.75 
Q 26.265625 6.109375 33.40625 6.109375 
Q 40.53125 6.109375 44.609375 11.75 
Q 48.6875 17.390625 48.6875 27.296875 
z
M 18.109375 46.390625 
Q 20.953125 51.265625 25.265625 53.625 
Q 29.59375 56 35.59375 56 
Q 45.5625 56 51.78125 48.09375 
Q 58.015625 40.1875 58.015625 27.296875 
Q 58.015625 14.40625 51.78125 6.484375 
Q 45.5625 -1.421875 35.59375 -1.421875 
Q 29.59375 -1.421875 25.265625 0.953125 
Q 20.953125 3.328125 18.109375 8.203125 
L 18.109375 0 
L 9.078125 0 
L 9.078125 75.984375 
L 18.109375 75.984375 
z
" id="DejaVuSans-98"/>
      </defs>
      <g transform="translate(768.236045 560.396383)rotate(-45)scale(0.088 -0.088)">
       <use xlink:href="#DejaVuSans-78"/>
       <use x="74.804688" xlink:href="#DejaVuSans-105"/>
       <use x="102.587891" xlink:href="#DejaVuSans-95"/>
       <use x="152.587891" xlink:href="#DejaVuSans-98"/>
       <use x="216.064453" xlink:href="#DejaVuSans-101"/>
       <use x="277.587891" xlink:href="#DejaVuSans-97"/>
       <use x="338.867188" xlink:href="#DejaVuSans-114"/>
       <use x="379.980469" xlink:href="#DejaVuSans-105"/>
       <use x="407.763672" xlink:href="#DejaVuSans-110"/>
       <use x="471.142578" xlink:href="#DejaVuSans-103"/>
      </g>
     </g>
    </g>
    <g id="xtick_17">
     <g id="line2d_33">
      <g>
       <use style="stroke:#000000;" x="845.485714" xlink:href="#m8e64fcfe2e" y="518.4"/>
      </g>
     </g>
     <g id="line2d_34">
      <g>
       <use style="stroke:#000000;" x="845.485714" xlink:href="#m10b3c93858" y="57.6"/>
      </g>
     </g>
     <g id="text_17">
      <!-- Fe_bearing -->
      <defs>
       <path d="M 9.8125 72.90625 
L 51.703125 72.90625 
L 51.703125 64.59375 
L 19.671875 64.59375 
L 19.671875 43.109375 
L 48.578125 43.109375 
L 48.578125 34.8125 
L 19.671875 34.8125 
L 19.671875 0 
L 9.8125 0 
z
" id="DejaVuSans-70"/>
      </defs>
      <g transform="translate(809.73139 561.415324)rotate(-45)scale(0.088 -0.088)">
       <use xlink:href="#DejaVuSans-70"/>
       <use x="57.441406" xlink:href="#DejaVuSans-101"/>
       <use x="118.964844" xlink:href="#DejaVuSans-95"/>
       <use x="168.964844" xlink:href="#DejaVuSans-98"/>
       <use x="232.441406" xlink:href="#DejaVuSans-101"/>
       <use x="293.964844" xlink:href="#DejaVuSans-97"/>
       <use x="355.244141" xlink:href="#DejaVuSans-114"/>
       <use x="396.357422" xlink:href="#DejaVuSans-105"/>
       <use x="424.140625" xlink:href="#DejaVuSans-110"/>
       <use x="487.519531" xlink:href="#DejaVuSans-103"/>
      </g>
     </g>
    </g>
    <g id="xtick_18">
     <g id="line2d_35">
      <g>
       <use style="stroke:#000000;" x="888" xlink:href="#m8e64fcfe2e" y="518.4"/>
      </g>
     </g>
     <g id="line2d_36">
      <g>
       <use style="stroke:#000000;" x="888" xlink:href="#m10b3c93858" y="57.6"/>
      </g>
     </g>
     <g id="text_18">
      <!-- With_Gold -->
      <defs>
       <path d="M 59.515625 10.40625 
L 59.515625 29.984375 
L 43.40625 29.984375 
L 43.40625 38.09375 
L 69.28125 38.09375 
L 69.28125 6.78125 
Q 63.578125 2.734375 56.6875 0.65625 
Q 49.8125 -1.421875 42 -1.421875 
Q 24.90625 -1.421875 15.25 8.5625 
Q 5.609375 18.5625 5.609375 36.375 
Q 5.609375 54.25 15.25 64.234375 
Q 24.90625 74.21875 42 74.21875 
Q 49.125 74.21875 55.546875 72.453125 
Q 61.96875 70.703125 67.390625 67.28125 
L 67.390625 56.78125 
Q 61.921875 61.421875 55.765625 63.765625 
Q 49.609375 66.109375 42.828125 66.109375 
Q 29.4375 66.109375 22.71875 58.640625 
Q 16.015625 51.171875 16.015625 36.375 
Q 16.015625 21.625 22.71875 14.15625 
Q 29.4375 6.6875 42.828125 6.6875 
Q 48.046875 6.6875 52.140625 7.59375 
Q 56.25 8.5 59.515625 10.40625 
z
" id="DejaVuSans-71"/>
      </defs>
      <g transform="translate(854.851364 558.809635)rotate(-45)scale(0.088 -0.088)">
       <use xlink:href="#DejaVuSans-87"/>
       <use x="98.845703" xlink:href="#DejaVuSans-105"/>
       <use x="126.628906" xlink:href="#DejaVuSans-116"/>
       <use x="165.837891" xlink:href="#DejaVuSans-104"/>
       <use x="229.216797" xlink:href="#DejaVuSans-95"/>
       <use x="279.216797" xlink:href="#DejaVuSans-71"/>
       <use x="356.707031" xlink:href="#DejaVuSans-111"/>
       <use x="417.888672" xlink:href="#DejaVuSans-108"/>
       <use x="445.671875" xlink:href="#DejaVuSans-100"/>
      </g>
     </g>
    </g>
    <g id="xtick_19">
     <g id="line2d_37">
      <g>
       <use style="stroke:#000000;" x="930.514286" xlink:href="#m8e64fcfe2e" y="518.4"/>
      </g>
     </g>
     <g id="line2d_38">
      <g>
       <use style="stroke:#000000;" x="930.514286" xlink:href="#m10b3c93858" y="57.6"/>
      </g>
     </g>
     <g id="text_19">
      <!-- With_Titanium -->
      <defs>
       <path d="M -0.296875 72.90625 
L 61.375 72.90625 
L 61.375 64.59375 
L 35.5 64.59375 
L 35.5 0 
L 25.59375 0 
L 25.59375 64.59375 
L -0.296875 64.59375 
z
" id="DejaVuSans-84"/>
       <path d="M 8.5 21.578125 
L 8.5 54.6875 
L 17.484375 54.6875 
L 17.484375 21.921875 
Q 17.484375 14.15625 20.5 10.265625 
Q 23.53125 6.390625 29.59375 6.390625 
Q 36.859375 6.390625 41.078125 11.03125 
Q 45.3125 15.671875 45.3125 23.6875 
L 45.3125 54.6875 
L 54.296875 54.6875 
L 54.296875 0 
L 45.3125 0 
L 45.3125 8.40625 
Q 42.046875 3.421875 37.71875 1 
Q 33.40625 -1.421875 27.6875 -1.421875 
Q 18.265625 -1.421875 13.375 4.4375 
Q 8.5 10.296875 8.5 21.578125 
z
M 31.109375 56 
z
" id="DejaVuSans-117"/>
      </defs>
      <g transform="translate(884.217618 571.957667)rotate(-45)scale(0.088 -0.088)">
       <use xlink:href="#DejaVuSans-87"/>
       <use x="98.845703" xlink:href="#DejaVuSans-105"/>
       <use x="126.628906" xlink:href="#DejaVuSans-116"/>
       <use x="165.837891" xlink:href="#DejaVuSans-104"/>
       <use x="229.216797" xlink:href="#DejaVuSans-95"/>
       <use x="279.216797" xlink:href="#DejaVuSans-84"/>
       <use x="340.253906" xlink:href="#DejaVuSans-105"/>
       <use x="368.037109" xlink:href="#DejaVuSans-116"/>
       <use x="407.246094" xlink:href="#DejaVuSans-97"/>
       <use x="468.525391" xlink:href="#DejaVuSans-110"/>
       <use x="531.904297" xlink:href="#DejaVuSans-105"/>
       <use x="559.6875" xlink:href="#DejaVuSans-117"/>
       <use x="623.066406" xlink:href="#DejaVuSans-109"/>
      </g>
     </g>
    </g>
    <g id="xtick_20">
     <g id="line2d_39">
      <g>
       <use style="stroke:#000000;" x="973.028571" xlink:href="#m8e64fcfe2e" y="518.4"/>
      </g>
     </g>
     <g id="line2d_40">
      <g>
       <use style="stroke:#000000;" x="973.028571" xlink:href="#m10b3c93858" y="57.6"/>
      </g>
     </g>
     <g id="text_20">
      <!-- With_Hastelloys -->
      <g transform="translate(921.995968 576.693603)rotate(-45)scale(0.088 -0.088)">
       <use xlink:href="#DejaVuSans-87"/>
       <use x="98.845703" xlink:href="#DejaVuSans-105"/>
       <use x="126.628906" xlink:href="#DejaVuSans-116"/>
       <use x="165.837891" xlink:href="#DejaVuSans-104"/>
       <use x="229.216797" xlink:href="#DejaVuSans-95"/>
       <use x="279.216797" xlink:href="#DejaVuSans-72"/>
       <use x="354.412109" xlink:href="#DejaVuSans-97"/>
       <use x="415.691406" xlink:href="#DejaVuSans-115"/>
       <use x="467.791016" xlink:href="#DejaVuSans-116"/>
       <use x="507" xlink:href="#DejaVuSans-101"/>
       <use x="568.523438" xlink:href="#DejaVuSans-108"/>
       <use x="596.306641" xlink:href="#DejaVuSans-108"/>
       <use x="624.089844" xlink:href="#DejaVuSans-111"/>
       <use x="685.271484" xlink:href="#DejaVuSans-121"/>
       <use x="744.451172" xlink:href="#DejaVuSans-115"/>
      </g>
     </g>
    </g>
    <g id="xtick_21">
     <g id="line2d_41">
      <g>
       <use style="stroke:#000000;" x="1015.542857" xlink:href="#m8e64fcfe2e" y="518.4"/>
      </g>
     </g>
     <g id="line2d_42">
      <g>
       <use style="stroke:#000000;" x="1015.542857" xlink:href="#m10b3c93858" y="57.6"/>
      </g>
     </g>
     <g id="text_21">
      <!-- With_Plastics+Glass -->
      <g transform="translate(951.274717 589.92914)rotate(-45)scale(0.088 -0.088)">
       <use xlink:href="#DejaVuSans-87"/>
       <use x="98.845703" xlink:href="#DejaVuSans-105"/>
       <use x="126.628906" xlink:href="#DejaVuSans-116"/>
       <use x="165.837891" xlink:href="#DejaVuSans-104"/>
       <use x="229.216797" xlink:href="#DejaVuSans-95"/>
       <use x="279.216797" xlink:href="#DejaVuSans-80"/>
       <use x="339.519531" xlink:href="#DejaVuSans-108"/>
       <use x="367.302734" xlink:href="#DejaVuSans-97"/>
       <use x="428.582031" xlink:href="#DejaVuSans-115"/>
       <use x="480.681641" xlink:href="#DejaVuSans-116"/>
       <use x="519.890625" xlink:href="#DejaVuSans-105"/>
       <use x="547.673828" xlink:href="#DejaVuSans-99"/>
       <use x="602.654297" xlink:href="#DejaVuSans-115"/>
       <use x="654.753906" xlink:href="#DejaVuSans-43"/>
       <use x="738.542969" xlink:href="#DejaVuSans-71"/>
       <use x="816.033203" xlink:href="#DejaVuSans-108"/>
       <use x="843.816406" xlink:href="#DejaVuSans-97"/>
       <use x="905.095703" xlink:href="#DejaVuSans-115"/>
       <use x="957.195312" xlink:href="#DejaVuSans-115"/>
      </g>
     </g>
    </g>
   </g>
   <g id="matplotlib.axis_2">
    <g id="ytick_1">
     <g id="line2d_43">
      <defs>
       <path d="M 0 0 
L 4.8 0 
" id="m952040e0b7" style="stroke:#000000;"/>
      </defs>
      <g>
       <use style="stroke:#000000;" x="144" xlink:href="#m952040e0b7" y="518.4"/>
      </g>
     </g>
     <g id="line2d_44">
      <defs>
       <path d="M 0 0 
L -4.8 0 
" id="m0d86eb58ba" style="stroke:#000000;"/>
      </defs>
      <g>
       <use style="stroke:#000000;" x="1036.8" xlink:href="#m0d86eb58ba" y="518.4"/>
      </g>
     </g>
     <g id="text_22">
      <!-- 0 -->
      <defs>
       <path d="M 31.78125 66.40625 
Q 24.171875 66.40625 20.328125 58.90625 
Q 16.5 51.421875 16.5 36.375 
Q 16.5 21.390625 20.328125 13.890625 
Q 24.171875 6.390625 31.78125 6.390625 
Q 39.453125 6.390625 43.28125 13.890625 
Q 47.125 21.390625 47.125 36.375 
Q 47.125 51.421875 43.28125 58.90625 
Q 39.453125 66.40625 31.78125 66.40625 
z
M 31.78125 74.21875 
Q 44.046875 74.21875 50.515625 64.515625 
Q 56.984375 54.828125 56.984375 36.375 
Q 56.984375 17.96875 50.515625 8.265625 
Q 44.046875 -1.421875 31.78125 -1.421875 
Q 19.53125 -1.421875 13.0625 8.265625 
Q 6.59375 17.96875 6.59375 36.375 
Q 6.59375 54.828125 13.0625 64.515625 
Q 19.53125 74.21875 31.78125 74.21875 
z
" id="DejaVuSans-48"/>
      </defs>
      <g transform="translate(134.401 520.82825)scale(0.088 -0.088)">
       <use xlink:href="#DejaVuSans-48"/>
      </g>
     </g>
    </g>
    <g id="ytick_2">
     <g id="line2d_45">
      <g>
       <use style="stroke:#000000;" x="144" xlink:href="#m952040e0b7" y="403.2"/>
      </g>
     </g>
     <g id="line2d_46">
      <g>
       <use style="stroke:#000000;" x="1036.8" xlink:href="#m0d86eb58ba" y="403.2"/>
      </g>
     </g>
     <g id="text_23">
      <!-- 50 -->
      <defs>
       <path d="M 10.796875 72.90625 
L 49.515625 72.90625 
L 49.515625 64.59375 
L 19.828125 64.59375 
L 19.828125 46.734375 
Q 21.96875 47.46875 24.109375 47.828125 
Q 26.265625 48.1875 28.421875 48.1875 
Q 40.625 48.1875 47.75 41.5 
Q 54.890625 34.8125 54.890625 23.390625 
Q 54.890625 11.625 47.5625 5.09375 
Q 40.234375 -1.421875 26.90625 -1.421875 
Q 22.3125 -1.421875 17.546875 -0.640625 
Q 12.796875 0.140625 7.71875 1.703125 
L 7.71875 11.625 
Q 12.109375 9.234375 16.796875 8.0625 
Q 21.484375 6.890625 26.703125 6.890625 
Q 35.15625 6.890625 40.078125 11.328125 
Q 45.015625 15.765625 45.015625 23.390625 
Q 45.015625 31 40.078125 35.4375 
Q 35.15625 39.890625 26.703125 39.890625 
Q 22.75 39.890625 18.8125 39.015625 
Q 14.890625 38.140625 10.796875 36.28125 
z
" id="DejaVuSans-53"/>
      </defs>
      <g transform="translate(128.802 405.62825)scale(0.088 -0.088)">
       <use xlink:href="#DejaVuSans-53"/>
       <use x="63.623047" xlink:href="#DejaVuSans-48"/>
      </g>
     </g>
    </g>
    <g id="ytick_3">
     <g id="line2d_47">
      <g>
       <use style="stroke:#000000;" x="144" xlink:href="#m952040e0b7" y="288"/>
      </g>
     </g>
     <g id="line2d_48">
      <g>
       <use style="stroke:#000000;" x="1036.8" xlink:href="#m0d86eb58ba" y="288"/>
      </g>
     </g>
     <g id="text_24">
      <!-- 100 -->
      <defs>
       <path d="M 12.40625 8.296875 
L 28.515625 8.296875 
L 28.515625 63.921875 
L 10.984375 60.40625 
L 10.984375 69.390625 
L 28.421875 72.90625 
L 38.28125 72.90625 
L 38.28125 8.296875 
L 54.390625 8.296875 
L 54.390625 0 
L 12.40625 0 
z
" id="DejaVuSans-49"/>
      </defs>
      <g transform="translate(123.203 290.42825)scale(0.088 -0.088)">
       <use xlink:href="#DejaVuSans-49"/>
       <use x="63.623047" xlink:href="#DejaVuSans-48"/>
       <use x="127.246094" xlink:href="#DejaVuSans-48"/>
      </g>
     </g>
    </g>
    <g id="ytick_4">
     <g id="line2d_49">
      <g>
       <use style="stroke:#000000;" x="144" xlink:href="#m952040e0b7" y="172.8"/>
      </g>
     </g>
     <g id="line2d_50">
      <g>
       <use style="stroke:#000000;" x="1036.8" xlink:href="#m0d86eb58ba" y="172.8"/>
      </g>
     </g>
     <g id="text_25">
      <!-- 150 -->
      <g transform="translate(123.203 175.22825)scale(0.088 -0.088)">
       <use xlink:href="#DejaVuSans-49"/>
       <use x="63.623047" xlink:href="#DejaVuSans-53"/>
       <use x="127.246094" xlink:href="#DejaVuSans-48"/>
      </g>
     </g>
    </g>
    <g id="ytick_5">
     <g id="line2d_51">
      <g>
       <use style="stroke:#000000;" x="144" xlink:href="#m952040e0b7" y="57.6"/>
      </g>
     </g>
     <g id="line2d_52">
      <g>
       <use style="stroke:#000000;" x="1036.8" xlink:href="#m0d86eb58ba" y="57.6"/>
      </g>
     </g>
     <g id="text_26">
      <!-- 200 -->
      <defs>
       <path d="M 19.1875 8.296875 
L 53.609375 8.296875 
L 53.609375 0 
L 7.328125 0 
L 7.328125 8.296875 
Q 12.9375 14.109375 22.625 23.890625 
Q 32.328125 33.6875 34.8125 36.53125 
Q 39.546875 41.84375 41.421875 45.53125 
Q 43.3125 49.21875 43.3125 52.78125 
Q 43.3125 58.59375 39.234375 62.25 
Q 35.15625 65.921875 28.609375 65.921875 
Q 23.96875 65.921875 18.8125 64.3125 
Q 13.671875 62.703125 7.8125 59.421875 
L 7.8125 69.390625 
Q 13.765625 71.78125 18.9375 73 
Q 24.125 74.21875 28.421875 74.21875 
Q 39.75 74.21875 46.484375 68.546875 
Q 53.21875 62.890625 53.21875 53.421875 
Q 53.21875 48.921875 51.53125 44.890625 
Q 49.859375 40.875 45.40625 35.40625 
Q 44.1875 33.984375 37.640625 27.21875 
Q 31.109375 20.453125 19.1875 8.296875 
z
" id="DejaVuSans-50"/>
      </defs>
      <g transform="translate(123.203 60.02825)scale(0.088 -0.088)">
       <use xlink:href="#DejaVuSans-50"/>
       <use x="63.623047" xlink:href="#DejaVuSans-48"/>
       <use x="127.246094" xlink:href="#DejaVuSans-48"/>
      </g>
     </g>
    </g>
   </g>
   <g id="legend_1">
    <g id="patch_49">
     <path d="M 995.121 90.4735 
L 1032.4 90.4735 
L 1032.4 62 
L 995.121 62 
z
" style="fill:#ffffff;stroke:#000000;stroke-linejoin:miter;stroke-width:0.8;"/>
    </g>
    <g id="patch_50">
     <path d="M 998.641 72.206625 
L 1016.241 72.206625 
L 1016.241 66.046625 
L 998.641 66.046625 
z
" style="fill:#7fc97f;stroke:#000000;stroke-linejoin:miter;stroke-width:0.8;"/>
    </g>
    <g id="text_27">
     <!-- 0 -->
     <g transform="translate(1023.281 72.206625)scale(0.088 -0.088)">
      <use xlink:href="#DejaVuSans-48"/>
     </g>
    </g>
    <g id="patch_51">
     <path d="M 998.641 85.123375 
L 1016.241 85.123375 
L 1016.241 78.963375 
L 998.641 78.963375 
z
" style="fill:#beaed4;stroke:#000000;stroke-linejoin:miter;stroke-width:0.8;"/>
    </g>
    <g id="text_28">
     <!-- 1 -->
     <g transform="translate(1023.281 85.123375)scale(0.088 -0.088)">
      <use xlink:href="#DejaVuSans-49"/>
     </g>
    </g>
   </g>
  </g>
 </g>
 <defs>
  <clipPath id="p9844367c4a">
   <rect height="460.8" width="892.8" x="144" y="57.6"/>
  </clipPath>
 </defs>
</svg>
